# xmcd
#
# Track frame offsets: 
#        150
#        14151
#        29193
#        45971
#        63398
#        79741
#        98243
#        116800
#        132597
#        147471
#        162215
#        178206
#        193419
#        206553
#        222585
#
# Disc length: 3109 seconds
#
# Revision: 0
# Processed by: cddbd v1.5.2PL0 Copyright (c) Steve Scherf et al.
# Submitted via: ExactAudioCopy v0.99pb4
#
DISCID=f20c230f
DTITLE=The Baseballs - Strike
DYEAR=1900
DGENRE=rockabilly
TTITLE0=Umbrella
TTITLE1=Love in this club
TTITLE2=Hey there Delilah
TTITLE3=Bleeding Love
TTITLE4=Hot n cold
TTITLE5=I don't feel like dancing
TTITLE6=Don't cha
TTITLE7=Let's get loud
TTITLE8=Angels
TTITLE9=Crazy in love
TTITLE10=This love
TTITLE11=This look
TTITLE12=Chasing cars
TTITLE13=No one
TTITLE14=Pokerface
EXTD=
EXTT0=
EXTT1=
EXTT2=
EXTT3=
EXTT4=
EXTT5=
EXTT6=
EXTT7=
EXTT8=
EXTT9=
EXTT10=
EXTT11=
EXTT12=
EXTT13=
EXTT14=
PLAYORDER=
